# xmcd
#
# Track frame offsets:
#	150
#	11938
#	29131
#	49194
#	63071
#	77617
#	92971
#	101777
#	121533
#	135550
#
# Disc length: 2023 seconds
#
# Revision: 0
# Processed by: cddbd v1.5.2PL0 Copyright (c) Steve Scherf et al.
# Submitted via: EasyCDDAExtractor 4.6.0.1
#
DISCID=8007e50a
DTITLE=David Allan Coe - Texas Moon (LP)
DYEAR=1977
DGENRE=
TTITLE0=Got You On My Mind
TTITLE1=These Days
TTITLE2=A Satisfied Mind
TTITLE3=Why You Been Gone So Long
TTITLE4=Why Me
TTITLE5=Mary Magdaline
TTITLE6=Fuzzy Was An Outlaw
TTITLE7=That Old Time Feeling
TTITLE8=Ride Me Down Easy
TTITLE9=Give My Love To Rose
EXTD=
EXTT0=
EXTT1=
EXTT2=
EXTT3=
EXTT4=
EXTT5=
EXTT6=
EXTT7=
EXTT8=
EXTT9=
PLAYORDER=
